<?xml version="1.0" encoding="utf-8"?>
<!-- Generator: Adobe Illustrator 19.2.1, SVG Export Plug-In . SVG Version: 6.00 Build 0)  -->
<svg version="1.1" id="Camada_1" xmlns="http://www.w3.org/2000/svg" xmlns:xlink="http://www.w3.org/1999/xlink" x="0px" y="0px"
	 viewBox="0 0 400 80" style="enable-background:new 0 0 400 80;" xml:space="preserve">
<style type="text/css">
	.st0{display:none;fill:#E7635D;}
	.st1{fill:none;stroke:#FFFFFF;stroke-width:2.0871;stroke-miterlimit:10;}
	.st2{fill:#FFFFFF;}
</style>
<rect x="100" y="20" class="st0" width="200" height="40"/>
<g>
	<g>
		<path class="st1" d="M53.8,18.2c3.4,2.7,2.7,5.2,2.3,9.2l-0.6,5.2c-0.3,1.8-0.6,1.6-4.8,1.6c0,0-7.3-0.1-7.5-0.1
			c-0.2,0-0.4-0.2-0.6-0.4c-0.2-0.2-0.2-0.4-0.2-1l0.4-3.1c0-1.3,0-0.8-0.2-1.3C42.3,28,42.1,28,41.7,28c-0.2,0-0.4,0-0.4,0h-8.3
			c0,0-0.4,0-1,0.2c-0.6,0.2-0.8,0.6-1,1.5l-4.2,33.4c0,0.6,1.7,0.4,1.7,0.4h8.3c0,0,1.9,0,2.1-0.8l0.4-2.9c0-0.5,1.3-0.4,1.5-0.4
			c0,0,8,0.1,10.8,0.4c0.5,0.1,0.9,0.5,0.8,1l-0.5,4.4c-0.4,3.1-1.5,5.6-2.9,7.3c-1.5,1.7-3.1,2.9-4.8,3.8c-1.7,0.8-3.3,1.3-4.6,1.5
			c-1.5,0.2-2.1,0.2-2.1,0.2H24.8H24c-0.4,0-1-0.2-1.7-0.2c-0.6-0.2-1.5-0.4-2.3-0.6c-0.8-0.2-1.7-0.6-2.3-1.3
			c-0.8-0.4-1.5-1.3-2.1-2.1c-1.9-2.3-2.5-5.2-2.1-8.8l1-8.1c0.2-1.5-0.2-2.7-0.6-3.3c-0.4-0.4-1.7-0.6-2.1-0.6c-0.2,0,0.6,0-1.5,0
			v-0.6c2.1-0.2,1.9-0.2,2.3-0.4c0.4-0.2,1.3-0.6,1.7-1c0.4-0.4,0.8-1.3,1-2.1l0.4-2.3l2.5-19c0.4-2.7,1-5,2.3-6.5
			c1.3-1.7,4.8-5.2,9.8-6.4c4.1-1,10.5-1.5,15.9-0.2C49.2,15,52.2,16.8,53.8,18.2z"/>
		<path class="st1" d="M95.1,47.8c-0.2,1.7,0,2.9,0.6,3.5c0.4,0.4,0.6,0.6,0.8,0.6c0.4,0,0.4,0,0.4,0v0.6c0,0-0.2,0-0.4,0
			s-0.6,0.2-1,0.4c-0.4,0.2-0.8,0.6-1,1.3c-0.2,1-0.4,1.9-0.4,2.9l-1,7.9c-0.4,3.1-1.5,5.6-2.9,7.3c-1.5,1.7-3.1,3-4.8,3.8
			c-4.5,2.1-18.8,1.9-22.5,1.3c-0.8-0.1-1.9-0.6-2.9-1c-1-0.4-1.9-1.3-2.9-2.3c-1.9-2.3-2.7-5.2-2.3-9.2l1-7.7
			c0.2-1.5,0-2.7-0.6-3.5c-0.4-0.4-1.7-0.6-2.1-0.6c-0.2,0-1.5,0-1.5,0v-0.6c0-0.2,2.1-0.4,2.5-0.6c0.4-0.2,1.3-0.6,1.7-1.3
			c0.4-0.6,0.8-1.5,1-2.5l2.7-20.5c0.4-3.1,1.5-5.6,2.9-7.3c1.5-1.7,3.1-3,4.8-3.8c6.3-2.7,24.7-2.7,28.4,2.1
			c1.9,2.3,2.7,5.4,2.3,9.2L95.1,47.8z M68.3,61.4c-0.2,2.3,1.1,2.1,1.1,2.1h8.3c0,0,1.9,0,2.1-0.8l4.2-33.4c0-0.6-0.3-1-1.7-1
			c-2.1-0.1-8.3,0-8.3,0s-0.4,0-1,0c-0.6,0.2-0.8,0.6-1,1.5L68.3,61.4z"/>
		<path class="st2" d="M92.6,78.1c-2.3,0-4-0.8-5-2.3c-0.8-1.5-1.3-3.5-1-6.1c0.2-2.5,1-5.2,2.1-8.6c1.3-3.1,2.7-6.3,4.4-9.6
			c4.6-8.3,8.3-15.2,11.5-20.7c3.1-5.4,5.6-10,7.7-13.6c2.1-3.5,4-6.1,5.2-7.7c1.5-1.7,2.7-2.9,4.2-3.5c1.3-0.6,2.7-1,4.4-1
			c1.5,0,3.5,0,5.8,0c-7.7,13.1-14.4,24.8-20,35.3c-2.5,4.4-4.8,8.8-7.3,12.9c-2.3,4.2-4.4,7.9-6.1,11.3c-1.7,3.3-2.9,6.1-4,7.9
			c-0.8,2.1-1,2.9-0.8,2.9c0.4,0,1.3-0.4,2.1-1.3c0.8-0.8,1.9-2.3,3.3-4.4c1.5-2.1,3.3-5.6,5.6-9.4c2.3-3.8,5-8.3,8.3-14.6h1.9
			c-3.1,6.3-5.8,11.3-8.1,15.2c-2.3,4-4.2,7.5-6.1,9.8c-1.7,2.5-3.1,4.4-4.6,5.4C95.6,77.5,94.1,78.1,92.6,78.1z"/>
		<path class="st2" d="M136.5,30.9c1.5,0,2.3,0.4,2.7,1.5c0.4,1,0.4,2.3,0,3.5c0.8-1,1.7-2.1,2.5-2.7c0.8-0.6,1.9-1.3,2.9-1.5
			c1-0.4,2.3-0.6,4-0.8c1.5-0.2,3.3-0.2,5.4-0.2c-4.8,8.3-9,15.7-12.5,22.1c-1.5,2.7-3.1,5.4-4.4,8.1c-1.5,2.7-2.7,5-3.5,7.1
			c-1,2.1-1.7,3.8-2.1,5c-0.4,1.3-0.4,1.9-0.2,1.9c0.4,0,1.3-0.4,2.1-1.3c0.8-0.8,1.9-2.3,3.3-4.4c1.5-2.1,3.3-5.6,5.6-9.4
			c2.3-3.5,5-8.3,8.3-14.6h1.9c-3.1,6.3-5.8,11.3-8.1,15.2c-2.3,4-4.2,7.5-6.1,9.8c-1.7,2.5-3.1,4.4-4.6,5.4c-1.3,1-2.7,1.7-4.2,1.7
			s-2.7-0.2-3.5-0.8c-0.8-0.6-1.7-1.5-1.9-2.7c-0.4-1-0.4-2.5-0.4-4s0.4-3.3,0.8-5c-2.3,3.8-4.4,6.9-6.5,9.2c-1.9,2.3-4,3.5-5.6,3.5
			c-2.3,0-4.2-0.6-5.2-2.1c-1-1.5-1.5-3.1-1.5-5.4c0-2.3,0.4-4.8,1.5-7.5c0.8-2.7,2.1-5.6,3.8-8.6c1.5-2.9,3.3-5.8,5.4-8.6
			c2.1-2.7,4.4-5.2,6.7-7.5s4.6-4,7.1-5.4C131.9,31.8,134.2,30.9,136.5,30.9z M133.3,45.8c0.4-0.8,0.8-2.1,1.5-3.5
			c0.6-1.5,1-2.7,1.5-4.2c0.4-1.3,0.6-2.5,0.8-3.3c0-1-0.2-1.5-0.8-1.5c-0.4,0-1,0.6-1.9,1.9c-1,1.3-2.1,2.7-3.3,4.8
			c-1.3,1.9-2.7,4.2-4.2,6.7c-1.5,2.5-2.9,5-4.4,7.7c-1.5,2.5-2.9,5.2-4.2,7.7c-1.3,2.5-2.3,4.8-3.1,6.7s-1.5,3.5-1.9,4.8
			s-0.2,1.9,0.2,1.9c0.6,0,1.5-0.6,2.5-2.1c1-1.3,2.3-2.9,3.8-5s2.9-4.2,4.4-6.7c1.5-2.3,2.9-4.6,4.2-6.7c0.2-0.4,0.6-1,0.8-1.5
			c0.2-0.4,0.6-1,0.8-1.5L133.3,45.8z"/>
		<path class="st2" d="M169.9,33.2c0.8-0.8,2.1-1.3,3.3-1.7c1.5-0.2,2.7-0.2,4,0.2c1.3,0.4,2.3,1,3.3,2.1c0.8,1,1.3,2.5,1.3,4.4
			c0,2.3-0.6,4.8-1.7,7.5c-1,2.7-2.5,5.6-4.2,8.6s-3.8,5.8-6.1,8.6c-2.3,2.7-4.6,5.2-7.1,7.5c-2.5,2.3-4.8,4-7.3,5.4
			c-2.5,1.5-4.6,2.1-6.7,2.1c-2.9,0-5-0.8-6.3-2.3s-1.9-3.5-1.7-6.1c0-2.5,0.6-5.2,1.9-8.6c1-3.1,2.5-6.3,4.4-9.6
			c4.6-8.3,8.3-15.2,11.5-20.7c3.1-5.4,5.6-10,7.7-13.6c2.1-3.5,4-6.1,5.2-7.7c1.5-1.7,2.7-2.9,4.2-3.5c1.3-0.6,2.7-1,4.4-1
			c1.5,0,3.5,0,5.8,0c-1.5,2.7-3.1,5.4-4.8,8.6c-1.5,2.5-3.1,5.6-5.2,9C174,25.9,171.9,29.5,169.9,33.2z M151.7,72.5
			c1.5-1.9,3.1-4.2,5.2-7.1c1.9-2.9,4-6.1,5.8-9.2c1.9-3.1,3.8-6.5,5.4-9.6c1.7-3.1,3.1-5.8,4.2-7.9c0.6-1.5,1-2.5,1-3.3
			c0-0.8,0-1.3-0.4-1.5c-0.4-0.2-0.8,0-1.7,0.6c-0.6,0.4-1.5,1.5-2.3,2.7c-4,6.3-7.7,12.3-11.1,18.4c-3.3,6.1-6.3,11.5-8.6,16.5
			c-1.3,2.5-1.7,3.8-1,4C148.8,75.6,149.8,74.6,151.7,72.5z"/>
		<path class="st2" d="M207.6,30.9c2.5,0,4.2,0.6,5.2,2.1c1,1.5,1.7,3.1,1.7,5.4s-0.4,4.8-1.3,7.5c-0.8,2.7-2.1,5.6-3.8,8.6
			c-1.5,2.9-3.3,5.8-5.4,8.6c-2.1,2.7-4.4,5.2-6.9,7.5c-2.5,2.3-5,4-7.5,5.4c-2.5,1.5-5,2.1-7.5,2.1s-4.4-0.6-5.6-2.1
			s-1.9-3.1-2.1-5.4c-0.2-2.3,0.2-4.8,1-7.5c0.8-2.7,2.1-5.6,3.5-8.6s3.3-5.8,5.4-8.6c2.1-2.7,4.4-5.2,6.9-7.5c2.5-2.3,5-4,7.7-5.4
			C202,31.8,204.7,30.9,207.6,30.9z M182.6,76.4c0.4,0,1-0.6,2.1-1.9c1-1.3,2.1-2.9,3.3-5s2.7-4.4,4.2-7.1c1.5-2.5,3.1-5.2,4.6-7.9
			c1.5-2.7,2.9-5.4,4.4-7.9c1.5-2.5,2.5-5,3.5-7.1s1.7-3.8,2.1-5c0.4-1.3,0.4-1.9,0.2-1.9c-0.6,0-1.5,0.6-2.5,1.9
			c-1,1.3-2.3,2.9-3.5,5s-2.7,4.4-4.4,7.1c-1.5,2.5-3.1,5.2-4.6,7.9c-1.5,2.7-2.9,5.4-4.2,7.9c-1.3,2.5-2.5,5-3.3,7.1
			s-1.7,3.8-2.1,5C182.4,75.8,182.2,76.4,182.6,76.4z"/>
		<path class="st2" d="M251.2,45.8c-1.5,4.2-3.1,5.6-5,7.7c-1.9,2.1-3.8,4.2-5.6,5.6c-1.9,1.5-3.8,2.7-5.6,3.5
			c-1.9,0.8-3.3,1.3-4.6,1.3c-1.9,0-3.1-0.6-3.1-2.1c-0.2-1.5,0.2-3.1,0.8-5.2s1.9-4.4,3.3-6.9c1.5-2.5,2.7-4.8,4.2-6.9
			c1.3-2.1,2.3-3.8,3.1-5.2c0.8-1.5,1-2.1,0.6-2.1c-0.6,0-1.7,0.6-2.9,1.9c-1.3,1.3-2.9,3.3-5,6.5c-2.1,3.1-4.6,7.1-7.5,12.1
			c-2.9,5-6.3,11.5-10.2,19.2c-0.2,0.6-0.6,1.3-0.8,1.7c-0.2,0.4-0.4,0.8-0.6,1c-2.3,0-4.2-0.4-5.2-1.5c-1-0.8-1.7-2.5-1.5-4.6
			c0.2-2.1,0.8-4.8,2.3-8.1c1.5-3.3,3.3-7.5,6.1-12.3c2.1-4,4-7.3,5.6-9.8c1.7-2.7,3.3-4.8,5-6.5c1.7-1.7,3.3-2.7,5.4-3.3
			c1.9-0.6,4.2-1,6.7-1c-1,1-2.3,2.5-3.5,4.2c-1.5,1.7-2.7,3.8-4.2,5.8c-1.5,2.1-2.7,4.4-3.8,6.7c-1.3,2.3-2.1,4.6-2.9,6.7
			c2.1-3.8,4-7.1,6.1-9.8c1.9-2.9,3.8-5.4,5.6-7.3c1.9-2.1,3.8-3.5,5.6-4.6c1.9-1,4-1.5,6.1-1.5c1.7,0,2.7,0.4,3.3,1
			c0.6,0.8,0.8,1.7,0.6,3.1c-0.2,1.3-0.6,2.7-1.3,4.4c-0.6,1.7-1.5,3.1-2.5,5c-1,1.7-1.9,3.3-2.9,5c-1,1.7-1.9,3.1-2.7,4.4
			s-1.3,2.3-1.7,3.1c-0.4,0.8-0.4,1,0,1c0.4,0,0.8-0.2,1.7-0.8s1.7-1.5,2.7-2.3c1-1,2.1-2.9,3.1-4.2c1-1.3,1.9-2.7,2.7-4.8h2.5V45.8
			z"/>
		<path class="st2" d="M270.7,30.9c1.5,0,2.3,0.4,2.7,1.5c0.4,1,0.4,2.3,0,3.5c0.8-1,1.7-2.1,2.5-2.7c0.8-0.6,1.9-1.3,2.9-1.5
			c1-0.4,2.3-0.6,4-0.8c1.5-0.2,3.3-0.2,5.4-0.2c-4.8,8.3-9,15.7-12.5,22.1c-1.5,2.7-3.1,5.4-4.4,8.1c-1.5,2.7-2.7,5-3.5,7.1
			c-1,2.1-1.7,3.8-2.1,5c-0.4,1.3-0.4,1.9-0.2,1.9c0.4,0,1.3-0.4,2.1-1.3c0.8-0.8,1.9-2.3,3.3-4.4s3.3-5.6,5.6-9.4
			c2.3-3.5,5-8.3,8.3-14.6h1.9c-3.1,6.3-5.8,11.3-8.1,15.2c-2.3,4-4.2,7.5-6.1,9.8c-1.7,2.5-3.1,4.4-4.6,5.4c-1.3,1-2.7,1.7-4.2,1.7
			c-1.5,0-2.7-0.2-3.5-0.8c-0.8-0.6-1.7-1.5-1.9-2.7c-0.4-1-0.4-2.5-0.4-4s0.4-3.3,0.8-5c-2.3,3.8-4.4,6.9-6.5,9.2
			c-1.9,2.3-4,3.5-5.6,3.5c-2.3,0-4.2-0.6-5.2-2.1c-1-1.5-1.5-3.1-1.5-5.4c0-2.3,0.4-4.8,1.5-7.5c0.8-2.7,2.1-5.6,3.8-8.6
			c1.5-2.9,3.3-5.8,5.4-8.6c2.1-2.7,4.4-5.2,6.7-7.5c2.3-2.3,4.6-4,7.1-5.4C266.1,31.8,268.4,30.9,270.7,30.9z M267.7,45.8
			c0.4-0.8,0.8-2.1,1.5-3.5c0.6-1.5,1-2.7,1.5-4.2c0.4-1.3,0.6-2.5,0.8-3.3c0-1-0.2-1.5-0.8-1.5c-0.4,0-1,0.6-1.9,1.9
			c-1,1.3-2.1,2.7-3.3,4.8c-1.3,1.9-2.7,4.2-4.2,6.7c-1.5,2.5-2.9,5-4.4,7.7c-1.5,2.5-2.9,5.2-4.2,7.7c-1.3,2.5-2.3,4.8-3.3,6.7
			c-0.8,1.9-1.5,3.5-1.9,4.8c-0.4,1.3-0.2,1.9,0.2,1.9c0.6,0,1.5-0.6,2.5-2.1c1-1.3,2.3-2.9,3.8-5s2.9-4.2,4.4-6.7
			c1.5-2.3,2.9-4.6,4.2-6.7c0.2-0.4,0.6-1,0.8-1.5c0.2-0.4,0.6-1,0.8-1.5L267.7,45.8z"/>
		<path class="st2" d="M303.8,33.2c-1.7,4.2-3.5,6.3-5.4,9.4c-1.9,3.3-3.5,6.5-5.2,9.6c-1.7,3.1-3.3,6.1-4.8,9
			c-1.5,2.7-2.7,5.2-3.8,7.3c-1,2.1-1.7,3.8-2.3,5c-0.4,1.3-0.6,1.9-0.2,1.9s1.3-0.4,2.1-1.3c0.8-0.8,1.9-2.3,3.3-4.4
			c1.5-2.1,3.3-5.6,5.6-9.4c2.3-3.5,5-8.3,8.3-14.6h1.9c-3.1,6.3-5.8,11.3-8.1,15.2c-2.3,4-4.2,7.5-5.8,9.8
			c-1.7,2.5-3.1,4.4-4.6,5.4c-1.5,1-2.7,1.7-4,1.7c-2.3,0-4-0.8-5-2.3c-0.8-1.5-1.3-3.5-1-6.1c0.2-2.5,1-5.2,2.1-8.3
			c1.3-3.1,2.7-6.3,4.6-9.4c1.9-3.1,3.5-6.5,5.4-9.4c1.7-3.1,3.5-4.8,5.2-9h-1.5c-0.4,0-0.8,0-1-0.2s-0.4-0.4-0.2-0.6
			c0-0.2,0.2-0.6,0.4-0.8c0.2-0.2,0.6-0.4,1.3-0.4h2.3c1.7-4.2,3.3-4.8,5-6.9s3.3-4,5.2-5.4s3.8-2.7,5.6-3.8c1.9-0.8,4-1.3,6.3-1.3
			c-0.8,1.5-1.9,3.3-2.9,5.2c-0.8,1.7-2.1,3.3-3.3,5.6c-1.3,2.1-2.5,2.7-4,6.9h5.8c0.4,0,0.8,0.2,1,0.4c0.2,0.2,0.2,0.4,0.2,0.8
			c0,0.2-0.2,0.4-0.4,0.6c-0.2,0.2-0.6,0.2-1,0.2h-7.1V33.2z"/>
		<path class="st2" d="M298.2,78.1c-4.8,0-7.1-2.1-6.9-6.5c0.2-4.2,2.7-10.9,7.7-20c2.1-4,4-7.1,5.2-9.6c1.3-2.5,2.7-4.4,4-5.6
			c1.5-1.3,3.1-2.1,5-2.5c2.1-0.4,4.8-0.6,8.1-0.6c-4.6,7.9-8.6,14.8-11.9,21.1c-1.5,2.5-2.9,5.2-4.2,7.7c-1.3,2.5-2.5,4.8-3.3,6.7
			c-1,1.9-1.7,3.5-2.1,4.8s-0.4,1.9,0,1.9s1.3-0.4,2.1-1.3c0.8-0.8,1.9-2.3,3.3-4.4c1.5-2.1,3.3-5.6,5.4-9.4c2.3-3.5,5-8.3,8.3-14.6
			h1.9c-3.1,6.3-5.8,11.3-8.1,15.2c-2.3,4-4.2,7.5-6.1,9.8c-1.7,2.5-3.1,4.4-4.6,5.4C301.1,77.5,299.7,78.1,298.2,78.1z M327.4,22.2
			c-0.4,0.8-0.8,1.7-1.5,2.5s-1.3,1.5-2.1,2.1c-0.8,0.6-1.7,1-2.5,1.5c-0.8,0.4-1.7,0.4-2.5,0.4c-1.7,0-2.9-0.4-3.5-1.7
			c-0.6-1.3-0.6-2.7,0-4.4c0.4-0.8,0.8-1.7,1.5-2.5s1.3-1.5,2.1-2.1s1.7-1,2.5-1.5c0.8-0.4,1.7-0.4,2.5-0.4c1.7,0,2.9,0.6,3.5,1.9
			C328.3,18.8,328.1,20.3,327.4,22.2z"/>
		<path class="st2" d="M315.3,78.1c-2.3,0-4-0.6-4.8-2.1c-1-1.5-1.5-3.1-1.3-5.4c0-2.3,0.6-4.8,1.7-7.5c1-2.7,2.3-5.6,4-8.6
			s3.5-5.8,5.6-8.6c2.1-2.7,4.4-5.2,6.7-7.5c2.3-2.3,4.6-4,7.1-5.4c2.5-1.5,4.8-2.1,6.9-2.1c-5,8.6-9.4,16.1-13.1,22.5
			c-1.5,2.9-3.1,5.6-4.6,8.3c-1.5,2.7-2.7,5-3.8,7.3c-1,2.1-1.9,3.8-2.3,5.2c-0.4,1.3-0.6,1.9-0.2,1.9c0.4,0,1.5-0.8,2.7-2.5
			c1.3-1.7,2.9-3.8,4.6-6.5s3.5-5.6,5.6-9c2.1-3.3,4-6.5,5.8-9.8c2.1-3.8,4-6.7,5.2-9c1.5-2.3,2.7-4,4.2-5.2s3.1-2.1,5-2.3
			c1.9-0.4,4.4-0.6,7.5-0.6c-2.1,3.8-4.2,7.7-6.5,11.5c-2.3,3.8-4.4,7.5-6.7,10.9c-2.3,3.5-4.6,6.7-6.9,9.6s-4.8,5.6-7.1,7.7
			c-2.5,2.3-5,4-7.5,5.2C320.3,77.5,317.8,78.1,315.3,78.1z"/>
		<path class="st2" d="M374,30.9c1.5,0,2.3,0.4,2.7,1.5c0.4,1,0.4,2.3,0,3.5c0.8-1,1.7-2.1,2.5-2.7c0.8-0.6,1.9-1.3,2.9-1.5
			c1-0.4,2.3-0.6,4-0.8c1.5-0.2,3.3-0.2,5.4-0.2c-4.8,8.3-9,15.7-12.5,22.1c-1.5,2.7-3.1,5.4-4.4,8.1c-1.5,2.7-2.7,5-3.5,7.1
			c-1,2.1-1.7,3.8-2.1,5c-0.4,1.3-0.4,1.9-0.2,1.9c0.4,0,1.3-0.4,2.1-1.3c0.8-0.8,1.9-2.3,3.3-4.4s3.3-5.6,5.6-9.4
			c2.3-3.5,5-8.3,8.3-14.6h1.9c-3.1,6.3-5.8,11.3-8.1,15.2c-2.3,4-4.2,7.5-6.1,9.8c-1.7,2.5-3.1,4.4-4.6,5.4c-1.3,1-2.7,1.7-4.2,1.7
			c-1.5,0-2.7-0.2-3.5-0.8c-0.8-0.6-1.7-1.5-1.9-2.7c-0.4-1-0.4-2.5-0.4-4s0.4-3.3,0.8-5c-2.3,3.8-4.4,6.9-6.5,9.2
			c-1.9,2.3-4,3.5-5.6,3.5c-2.3,0-4.2-0.6-5.2-2.1c-1-1.5-1.5-3.1-1.5-5.4c0-2.3,0.4-4.8,1.5-7.5c0.8-2.7,2.1-5.6,3.8-8.6
			c1.5-2.9,3.3-5.8,5.4-8.6c2.1-2.7,4.4-5.2,6.7-7.5c2.3-2.3,4.6-4,7.1-5.4C369.4,31.8,371.9,30.9,374,30.9z M371,45.8
			c0.4-0.8,0.8-2.1,1.5-3.5c0.6-1.5,1-2.7,1.5-4.2c0.4-1.3,0.6-2.5,0.8-3.3c0-1-0.2-1.5-0.8-1.5c-0.4,0-1,0.6-1.9,1.9
			c-1,1.3-2.1,2.7-3.3,4.8c-1.3,1.9-2.7,4.2-4.2,6.7c-1.5,2.5-2.9,5-4.4,7.7c-1.5,2.5-2.9,5.2-4.2,7.7c-1.3,2.5-2.3,4.8-3.3,6.7
			c-0.8,1.9-1.5,3.5-1.9,4.8c-0.4,1.3-0.2,1.9,0.2,1.9c0.6,0,1.5-0.6,2.5-2.1c1-1.3,2.3-2.9,3.8-5c1.5-2.1,2.9-4.2,4.4-6.7
			c1.5-2.3,2.9-4.6,4.2-6.7c0.2-0.4,0.6-1,0.8-1.5c0.2-0.4,0.6-1,0.8-1.5L371,45.8z"/>
	</g>
</g>
</svg>
